<svg width="24" height="24" viewBox="0 0 24 24" fill="none" xmlns="http://www.w3.org/2000/svg">
<mask id="mask0_12_77" style="mask-type:alpha" maskUnits="userSpaceOnUse" x="3" y="14" width="18" height="7">
<rect width="18" height="6" transform="translate(3 14.8)" fill="white"/>
</mask>
<g mask="url(#mask0_12_77)">
<path d="M15 8.79999H9V14.8H15V8.79999ZM13 12.8H11V10.8H13V12.8ZM21 10.8V8.79999H19V6.79999C19 5.69999 18.1 4.79999 17 4.79999H15V2.79999H13V4.79999H11V2.79999H9V4.79999H7C5.9 4.79999 5 5.69999 5 6.79999V8.79999H3V10.8H5V12.8H3V14.8H5V16.8C5 17.9 5.9 18.8 7 18.8H9V20.8H11V18.8H13V20.8H15V18.8H17C18.1 18.8 19 17.9 19 16.8V14.8H21V12.8H19V10.8H21ZM17 16.8H7V6.79999H17V16.8Z" fill="black"/>
</g>
<path d="M13 13.1H13.1V13V11V10.9H13H11H10.9V11V13V13.1H11H13ZM18.9 9V9.1H19H20.9V10.9H19H18.9V11V13V13.1H19H20.9V14.9H19H18.9V15V17C18.9 18.0448 18.0448 18.9 17 18.9H15H14.9V19V20.9H13.1V19V18.9H13H11H10.9V19V20.9H9.1V19V18.9H9H7C5.95523 18.9 5.1 18.0448 5.1 17V15V14.9H5H3.1V13.1H5H5.1V13V11V10.9H5H3.1V9.1H5H5.1V9V7C5.1 5.95523 5.95523 5.1 7 5.1H9H9.1V5V3.1H10.9V5V5.1H11H13H13.1V5V3.1H14.9V5V5.1H15H17C18.0448 5.1 18.9 5.95523 18.9 7V9ZM17 17.1H17.1V17V7V6.9H17H7H6.9V7V17V17.1H7H17ZM9.1 9.1H14.9V14.9H9.1V9.1Z" stroke="black" stroke-width="0.2"/>
</svg>
