<svg width="24" height="24" viewBox="0 0 24 24" fill="none" xmlns="http://www.w3.org/2000/svg">
<path d="M17 5V21C17 21.55 16.55 22 16 22H8C7.45 22 7 21.55 7 21V5C7 4.45 7.45 4 8 4H10V2H14V4H16C16.55 4 17 4.45 17 5Z" fill="#C4C4C4"/>
<mask id="mask0_13_197" style="mask-type:alpha" maskUnits="userSpaceOnUse" x="7" y="14" width="10" height="8">
<rect width="10" height="8" transform="translate(7 14)" fill="white"/>
</mask>
<g mask="url(#mask0_13_197)">
<path d="M17 5V21C17 21.55 16.55 22 16 22H8C7.45 22 7 21.55 7 21V5C7 4.45 7.45 4 8 4H10V2H14V4H16C16.55 4 17 4.45 17 5Z" fill="#1E293D"/>
</g>
<path d="M11.3978 20H10.7978L11.3978 14.9444H9.29773C8.94972 14.9444 8.95572 14.7133 9.06973 14.4678C9.18373 14.2222 9.09973 14.41 9.11173 14.3811C9.88574 12.7344 11.0498 10.2789 12.5978 7H13.1978L12.5978 12.0556H14.6979C14.9919 12.0556 15.0339 12.2939 14.9799 12.4239L14.9379 12.5322C12.5738 17.5083 11.3978 20 11.3978 20Z" fill="#F4FEFF"/>
</svg>
