<svg width="24" height="24" viewBox="0 0 24 24" fill="none" xmlns="http://www.w3.org/2000/svg">
<path d="M15.59 7L12 10.59L8.41 7.00004L7 8.41004L10.59 12L7 15.59L8.41 17L12 13.41L15.59 17L17 15.59L13.41 12L17 8.41004L15.59 7ZM17 15.59L15.59 17L12 13.41L8.41 17L7 15.59L10.59 12L7 8.41004L8.41 7.00004L12 10.59L15.59 7L17 8.41004L13.41 12L17 15.59Z" fill="black"/>
<path d="M17 8.41004L15.59 7L12 10.59L8.41 7.00004L7 8.41004L10.59 12L7 15.59L8.41 17L12 13.41L15.59 17L17 15.59L13.41 12L17 8.41004Z" fill="black"/>
</svg>
